<svg xmlns="http://www.w3.org/2000/svg" width="173.3mm" height="329.998" version="1.1" viewBox="0 0 173.3 87.312"><defs><marker id="a" orient="auto" overflow="visible"><path fill-rule="evenodd" stroke="#000" stroke-width="1pt" d="m0 0 5-5-17.5 5 17.5 5-5-5z" transform="scale(.4) rotate(180) translate(10)"/></marker><marker id="Arrow1Mend" orient="auto" overflow="visible"><path fill-rule="evenodd" stroke="#000" stroke-width="1pt" d="m0 0 5-5-17.5 5 17.5 5-5-5z" transform="scale(.4) rotate(180) translate(10)"/></marker><marker id="g" orient="auto" overflow="visible"><path fill-rule="evenodd" stroke="#000" stroke-width="1pt" d="m0 0 5-5-17.5 5 17.5 5z" transform="matrix(-.4 0 0 -.4 -4 0)"/></marker><marker id="f" orient="auto" overflow="visible"><path fill="#00f" fill-rule="evenodd" stroke="#00f" stroke-width="1pt" d="m0 0 5-5-17.5 5 17.5 5z" transform="matrix(-.4 0 0 -.4 -4 0)"/></marker><marker id="h" orient="auto" overflow="visible"><path fill="#00f" fill-rule="evenodd" stroke="#00f" stroke-width="1pt" d="m0 0 5-5-17.5 5 17.5 5z" transform="matrix(-.4 0 0 -.4 -4 0)"/></marker><marker id="d" orient="auto" overflow="visible"><path fill="#00f" fill-rule="evenodd" stroke="#00f" stroke-width="1pt" d="m0 0 5-5-17.5 5 17.5 5z" transform="matrix(-.4 0 0 -.4 -4 0)"/></marker><marker id="b" orient="auto" overflow="visible"><path fill="#00f" fill-rule="evenodd" stroke="#00f" stroke-width="1pt" d="m0 0 5-5-17.5 5 17.5 5z" transform="matrix(-.4 0 0 -.4 -4 0)"/></marker><marker id="c" orient="auto" overflow="visible"><path fill="#00f" fill-rule="evenodd" stroke="#00f" stroke-width="1pt" d="m0 0 5-5-17.5 5 17.5 5z" transform="matrix(-.4 0 0 -.4 -4 0)"/></marker><marker id="e" orient="auto" overflow="visible"><path fill="#00f" fill-rule="evenodd" stroke="#00f" stroke-width="1pt" d="m0 0 5-5-17.5 5 17.5 5z" transform="matrix(-.4 0 0 -.4 -4 0)"/></marker></defs><metadata/><g transform="translate(2.6458 2.5135)"><rect width="173.3" height="87.312" x="-2.646" y="-2.514" fill="#fff" ry="0"/><path fill="none" stroke="#000" stroke-width=".265" marker-end="url(#a)" d="m5.2917 53.049v-9.2604"/><path fill="none" stroke="#000" stroke-width=".265" marker-end="url(#Arrow1Mend)" d="m5.2917 38.497v-9.2604"/></g><g transform="translate(-14.552 -4.6354)"><g stroke="#000" stroke-width=".265"><rect width="22.49" height="6.615" x="47.625" y="29.771" fill="none" stroke-dasharray=".529 .529"/><rect width="22.49" height="6.615" x="70.115" y="29.771" fill="#d7d7f4"/><rect width="22.49" height="6.615" x="92.604" y="29.771" fill="#d7d7f4"/><rect width="22.49" height="6.615" x="115.09" y="29.771" fill="none" stroke-dasharray=".529 .529"/><rect width="22.49" height="6.615" x="137.58" y="29.771" fill="none" stroke-dasharray=".529 .529"/><rect width="22.49" height="6.615" x="160.07" y="29.771" fill="#d7d7f4"/></g><g fill="#d7f4d7" stroke="#000" stroke-width=".265"><rect width="22.49" height="6.615" x="92.604" y="44.323"/><rect width="22.49" height="6.615" x="115.09" y="44.323"/><rect width="22.49" height="6.615" x="137.58" y="44.323"/><rect width="22.49" height="6.615" x="160.07" y="44.323"/></g><text x="18.309" y="49.435" fill="#000" stroke-width=".265" font-family="sans-serif" font-size="3.528" letter-spacing="0" word-spacing="0" xml:space="preserve" style="font-feature-settings:normal;font-variant-caps:normal;font-variant-ligatures:normal;font-variant-numeric:normal;line-height:1.25"><tspan x="18.309" y="49.435" stroke-width=".265">snapshot</tspan></text><text x="18.363" y="11.23" fill="#000" stroke-width=".265" font-family="sans-serif" font-size="3.528" letter-spacing="0" word-spacing="0" xml:space="preserve" style="font-feature-settings:normal;font-variant-caps:normal;font-variant-ligatures:normal;font-variant-numeric:normal;line-height:1.25"><tspan x="18.363" y="11.23" stroke-width=".265">read</tspan></text><g stroke="#000"><path fill="none" stroke-dasharray="1.59 1.59" stroke-width=".265" d="m17.198 21.833 168.01-1e-6"/><g stroke-width=".265"><rect width="22.49" height="6.615" x="47.625" y="7.281" fill="#f4d7d7" stroke-dasharray=".529 .265"/><rect width="22.49" height="6.615" x="115.09" y="7.281" fill="#d7f4d7"/><rect width="22.49" height="6.615" x="137.58" y="7.281" fill="#d7f4d7"/></g></g><g fill="#d7d7f4" stroke="#000" stroke-width=".265"><rect width="22.49" height="6.615" x="70.115" y="7.281"/><rect width="22.49" height="6.615" x="92.604" y="7.281"/><rect width="22.49" height="6.615" x="160.07" y="7.281"/></g><text x="18.281" y="35.463" fill="#000" stroke-width=".265" font-family="sans-serif" font-size="3.528" letter-spacing="0" word-spacing="0" xml:space="preserve" style="font-feature-settings:normal;font-variant-caps:normal;font-variant-ligatures:normal;font-variant-numeric:normal;line-height:1.25"><tspan x="18.281" y="35.463" stroke-width=".265">clone</tspan></text><rect width="22.49" height="6.615" x="47.625" y="58.875" fill="#f4d7d7" stroke="#000" stroke-dasharray=".53 .265" stroke-width=".265"/><text x="59.059" y="63.505" fill="#000" stroke-width=".265" font-family="sans-serif" font-size="10.583" letter-spacing="0" word-spacing="0" xml:space="preserve" style="line-height:1.25"><tspan x="59.059" y="63.505" stroke-width=".265" font-family="sans-serif" font-size="3.528" text-align="center" text-anchor="middle" style="font-feature-settings:normal;font-variant-caps:normal;font-variant-ligatures:normal;font-variant-numeric:normal">00000...</tspan></text><rect width="22.49" height="6.615" x="70.115" y="58.875" fill="#f4d7d7" stroke="#000" stroke-dasharray=".53 .265" stroke-width=".265"/><text x="81.548" y="63.505" fill="#000" stroke-width=".265" font-family="sans-serif" font-size="10.583" letter-spacing="0" word-spacing="0" xml:space="preserve" style="line-height:1.25"><tspan x="81.548" y="63.505" stroke-width=".265" font-family="sans-serif" font-size="3.528" text-align="center" text-anchor="middle" style="font-feature-settings:normal;font-variant-caps:normal;font-variant-ligatures:normal;font-variant-numeric:normal">00000...</tspan></text><rect width="22.49" height="6.615" x="92.604" y="58.875" fill="#f4d7d7" stroke="#000" stroke-dasharray=".53 .265" stroke-width=".265"/><text x="104.038" y="63.505" fill="#000" stroke-width=".265" font-family="sans-serif" font-size="10.583" letter-spacing="0" word-spacing="0" xml:space="preserve" style="line-height:1.25"><tspan x="104.038" y="63.505" stroke-width=".265" font-family="sans-serif" font-size="3.528" text-align="center" text-anchor="middle" style="font-feature-settings:normal;font-variant-caps:normal;font-variant-ligatures:normal;font-variant-numeric:normal">00000...</tspan></text><rect width="22.49" height="6.615" x="115.09" y="58.875" fill="#f4d7d7" stroke="#000" stroke-dasharray=".53 .265" stroke-width=".265"/><text x="126.528" y="63.505" fill="#000" stroke-width=".265" font-family="sans-serif" font-size="10.583" letter-spacing="0" word-spacing="0" xml:space="preserve" style="line-height:1.25"><tspan x="126.528" y="63.505" stroke-width=".265" font-family="sans-serif" font-size="3.528" text-align="center" text-anchor="middle" style="font-feature-settings:normal;font-variant-caps:normal;font-variant-ligatures:normal;font-variant-numeric:normal">00000...</tspan></text><rect width="22.49" height="6.615" x="137.58" y="58.875" fill="#f4d7d7" stroke="#000" stroke-dasharray=".53 .265" stroke-width=".265"/><text x="149.017" y="63.505" fill="#000" stroke-width=".265" font-family="sans-serif" font-size="10.583" letter-spacing="0" word-spacing="0" xml:space="preserve" style="line-height:1.25"><tspan x="149.017" y="63.505" stroke-width=".265" font-family="sans-serif" font-size="3.528" text-align="center" text-anchor="middle" style="font-feature-settings:normal;font-variant-caps:normal;font-variant-ligatures:normal;font-variant-numeric:normal">00000...</tspan></text><rect width="22.49" height="6.615" x="160.07" y="58.875" fill="#f4d7d7" stroke="#000" stroke-dasharray=".53 .265" stroke-width=".265"/><text x="171.507" y="63.505" fill="#000" stroke-width=".265" font-family="sans-serif" font-size="10.583" letter-spacing="0" word-spacing="0" xml:space="preserve" style="line-height:1.25"><tspan x="171.507" y="63.505" stroke-width=".265" font-family="sans-serif" font-size="3.528" text-align="center" text-anchor="middle" style="font-feature-settings:normal;font-variant-caps:normal;font-variant-ligatures:normal;font-variant-numeric:normal">00000...</tspan></text><text x="18.309" y="63.987" fill="#000" stroke-width=".265" font-family="sans-serif" font-size="3.528" letter-spacing="0" word-spacing="0" xml:space="preserve" style="font-feature-settings:normal;font-variant-caps:normal;font-variant-ligatures:normal;font-variant-numeric:normal;line-height:1.25"><tspan x="18.309" y="63.987" stroke-width=".265">zeroes_dev</tspan></text><g fill="none"><rect width="22.49" height="6.615" x="47.625" y="44.323" stroke="#000" stroke-dasharray=".529 .529" stroke-width=".265"/><rect width="22.49" height="6.615" x="70.115" y="44.323" stroke="#000" stroke-dasharray=".529 .529" stroke-width=".265"/><rect width="145.52" height="11.906" x="39.688" y="27.125" stroke="gray" stroke-width=".265" ry="1.323"/><rect width="145.52" height="11.906" x="39.688" y="41.677" stroke="gray" stroke-width=".265" ry="1.323"/></g><g fill="#00f" stroke="#00f" stroke-width=".265"><path marker-end="url(#c)" d="m80.698 13.896v15.875"/><path marker-end="url(#b)" d="m58.208 13.896v44.979"/><path marker-end="url(#d)" d="m103.19 13.896v15.875"/><path marker-end="url(#h)" d="m171.98 13.896v15.875"/><path marker-end="url(#f)" d="m127 13.896v30.427"/><path marker-end="url(#g)" d="m149.49 13.896v30.427"/><path marker-end="url(#e)" d="m124.35 74.75 10.583 3e-6"/></g><g stroke-width=".265"><text x="137.583" y="76.073" fill="#000" font-family="sans-serif" font-size="3.528" letter-spacing="0" word-spacing="0" xml:space="preserve" style="font-feature-settings:normal;font-variant-caps:normal;font-variant-ligatures:normal;font-variant-numeric:normal;line-height:1.25"><tspan x="137.583" y="76.073" stroke-width=".265" font-family="sans-serif" font-size="2.822" style="font-feature-settings:normal;font-variant-caps:normal;font-variant-ligatures:normal;font-variant-numeric:normal">read cluster</tspan></text><rect width="10.583" height="2.646" x="124.35" y="78.719" fill="none" stroke="#000" stroke-dasharray=".529 .529"/><text x="137.583" y="81.365" fill="#000" font-family="sans-serif" font-size="3.528" letter-spacing="0" word-spacing="0" xml:space="preserve" style="font-feature-settings:normal;font-variant-caps:normal;font-variant-ligatures:normal;font-variant-numeric:normal;line-height:1.25"><tspan x="137.583" y="81.365" stroke-width=".265" font-family="sans-serif" font-size="2.822" style="font-feature-settings:normal;font-variant-caps:normal;font-variant-ligatures:normal;font-variant-numeric:normal">unallocated cluster</tspan></text></g><rect width="10.583" height="2.646" x="124.35" y="84.01" fill="none" stroke="#000" stroke-width=".265"/><text x="137.583" y="86.656" fill="#000" stroke-width=".265" font-family="sans-serif" font-size="3.528" letter-spacing="0" word-spacing="0" xml:space="preserve" style="font-feature-settings:normal;font-variant-caps:normal;font-variant-ligatures:normal;font-variant-numeric:normal;line-height:1.25"><tspan x="137.583" y="86.656" stroke-width=".265" font-family="sans-serif" font-size="2.822" style="font-feature-settings:normal;font-variant-caps:normal;font-variant-ligatures:normal;font-variant-numeric:normal">allocated cluster</tspan></text></g></svg>