<svg xmlns="http://www.w3.org/2000/svg" width="173.3mm" height="344.999" version="1.1" viewBox="0 0 173.3 91.281"><defs><marker id="h" orient="auto" overflow="visible"><path fill="red" fill-rule="evenodd" stroke="#ff2a2a" stroke-width="1pt" d="m0 0 5-5-17.5 5 17.5 5z" transform="matrix(-.4 0 0 -.4 -4 0)"/></marker><marker id="e" orient="auto" overflow="visible"><path fill="#00f" fill-rule="evenodd" stroke="#00f" stroke-width="1pt" d="m0 0 5-5-17.5 5 17.5 5z" transform="matrix(-.4 0 0 -.4 -4 0)"/></marker><marker id="d" orient="auto" overflow="visible"><path fill="#00f" fill-rule="evenodd" stroke="#00f" stroke-width="1pt" d="m0 0 5-5-17.5 5 17.5 5z" transform="matrix(-.4 0 0 -.4 -4 0)"/></marker><marker id="g" orient="auto" overflow="visible"><path fill="red" fill-rule="evenodd" stroke="#ff2a2a" stroke-width="1pt" d="m0 0 5-5-17.5 5 17.5 5z" transform="matrix(-.4 0 0 -.4 -4 0)"/></marker><marker id="b" orient="auto" overflow="visible"><path fill="#00f" fill-rule="evenodd" stroke="#00f" stroke-width="1pt" d="m0 0 5-5-17.5 5 17.5 5z" transform="matrix(-.4 0 0 -.4 -4 0)"/></marker><marker id="c" orient="auto" overflow="visible"><path fill="#00f" fill-rule="evenodd" stroke="#00f" stroke-width="1pt" d="m0 0 5-5-17.5 5 17.5 5z" transform="matrix(-.4 0 0 -.4 -4 0)"/></marker><marker id="f" orient="auto" overflow="visible"><path fill="red" fill-rule="evenodd" stroke="#ff2a2a" stroke-width="1pt" d="m0 0 5-5-17.5 5 17.5 5z" transform="matrix(-.4 0 0 -.4 -4 0)"/></marker><marker id="a" orient="auto" overflow="visible"><path fill-rule="evenodd" stroke="#000" stroke-width="1pt" d="m0 0 5-5-17.5 5 17.5 5z" transform="matrix(-.4 0 0 -.4 -4 0)"/></marker><marker id="Arrow1Mend" orient="auto" overflow="visible"><path fill-rule="evenodd" stroke="#000" stroke-width="1pt" d="m0 0 5-5-17.5 5 17.5 5z" transform="matrix(-.4 0 0 -.4 -4 0)"/></marker></defs><metadata/><g transform="translate(3.9688 -99.351)"><rect width="173.3" height="91.281" x="-3.969" y="99.351" fill="#fff" ry="0"/></g><g transform="translate(1.3229 -101.86)"><g stroke="#000" stroke-dasharray=".529 .529" stroke-width=".265"><rect width="22.49" height="6.615" x="31.75" y="127" fill="none"/><rect width="22.49" height="6.615" x="99.219" y="127" fill="#d7f4d7"/><rect width="22.49" height="6.615" x="121.71" y="127" fill="none"/></g><g fill="#d7d7f4" stroke="#000" stroke-width=".265"><rect width="22.49" height="6.615" x="76.729" y="141.55"/><rect width="22.49" height="6.615" x="99.219" y="141.55"/><rect width="22.49" height="6.615" x="121.71" y="141.55"/><rect width="22.49" height="6.615" x="144.2" y="141.55"/></g><text x="2.434" y="146.664" fill="#000" stroke-width=".265" font-family="sans-serif" font-size="3.528" letter-spacing="0" word-spacing="0" xml:space="preserve" style="font-feature-settings:normal;font-variant-caps:normal;font-variant-ligatures:normal;font-variant-numeric:normal;line-height:1.25"><tspan x="2.434" y="146.664" stroke-width=".265">snapshot</tspan></text><text x="2.488" y="108.46" fill="#000" stroke-width=".265" font-family="sans-serif" font-size="3.528" letter-spacing="0" word-spacing="0" xml:space="preserve" style="font-feature-settings:normal;font-variant-caps:normal;font-variant-ligatures:normal;font-variant-numeric:normal;line-height:1.25"><tspan x="2.488" y="108.46" stroke-width=".265">write</tspan></text><path fill="none" stroke="#000" stroke-dasharray="1.59 1.59" stroke-width=".265" d="m1.3229 119.06 168.01 1e-5"/><rect width="22.49" height="6.615" x="99.219" y="104.51" fill="#fff6d5" stroke="#000" stroke-width=".265"/><text x="2.406" y="132.693" fill="#000" stroke-width=".265" font-family="sans-serif" font-size="3.528" letter-spacing="0" word-spacing="0" xml:space="preserve" style="font-feature-settings:normal;font-variant-caps:normal;font-variant-ligatures:normal;font-variant-numeric:normal;line-height:1.25"><tspan x="2.406" y="132.693" stroke-width=".265">clone</tspan></text><rect width="22.49" height="6.615" x="31.75" y="156.1" fill="#f4d7d7" stroke="#000" stroke-dasharray=".53 .265" stroke-width=".265"/><text x="43.184" y="160.734" fill="#000" stroke-width=".265" font-family="sans-serif" font-size="10.583" letter-spacing="0" word-spacing="0" xml:space="preserve" style="line-height:1.25"><tspan x="43.184" y="160.734" stroke-width=".265" font-family="sans-serif" font-size="3.528" text-align="center" text-anchor="middle" style="font-feature-settings:normal;font-variant-caps:normal;font-variant-ligatures:normal;font-variant-numeric:normal">00000...</tspan></text><rect width="22.49" height="6.615" x="54.24" y="156.1" fill="#f4d7d7" stroke="#000" stroke-dasharray=".53 .265" stroke-width=".265"/><text x="65.673" y="160.734" fill="#000" stroke-width=".265" font-family="sans-serif" font-size="10.583" letter-spacing="0" word-spacing="0" xml:space="preserve" style="line-height:1.25"><tspan x="65.673" y="160.734" stroke-width=".265" font-family="sans-serif" font-size="3.528" text-align="center" text-anchor="middle" style="font-feature-settings:normal;font-variant-caps:normal;font-variant-ligatures:normal;font-variant-numeric:normal">00000...</tspan></text><rect width="22.49" height="6.615" x="76.729" y="156.1" fill="#f4d7d7" stroke="#000" stroke-dasharray=".53 .265" stroke-width=".265"/><text x="88.163" y="160.734" fill="#000" stroke-width=".265" font-family="sans-serif" font-size="10.583" letter-spacing="0" word-spacing="0" xml:space="preserve" style="line-height:1.25"><tspan x="88.163" y="160.734" stroke-width=".265" font-family="sans-serif" font-size="3.528" text-align="center" text-anchor="middle" style="font-feature-settings:normal;font-variant-caps:normal;font-variant-ligatures:normal;font-variant-numeric:normal">00000...</tspan></text><rect width="22.49" height="6.615" x="99.219" y="156.1" fill="#f4d7d7" stroke="#000" stroke-dasharray=".53 .265" stroke-width=".265"/><text x="110.653" y="160.734" fill="#000" stroke-width=".265" font-family="sans-serif" font-size="10.583" letter-spacing="0" word-spacing="0" xml:space="preserve" style="line-height:1.25"><tspan x="110.653" y="160.734" stroke-width=".265" font-family="sans-serif" font-size="3.528" text-align="center" text-anchor="middle" style="font-feature-settings:normal;font-variant-caps:normal;font-variant-ligatures:normal;font-variant-numeric:normal">00000...</tspan></text><rect width="22.49" height="6.615" x="121.71" y="156.1" fill="#f4d7d7" stroke="#000" stroke-dasharray=".53 .265" stroke-width=".265"/><text x="133.142" y="160.734" fill="#000" stroke-width=".265" font-family="sans-serif" font-size="10.583" letter-spacing="0" word-spacing="0" xml:space="preserve" style="line-height:1.25"><tspan x="133.142" y="160.734" stroke-width=".265" font-family="sans-serif" font-size="3.528" text-align="center" text-anchor="middle" style="font-feature-settings:normal;font-variant-caps:normal;font-variant-ligatures:normal;font-variant-numeric:normal">00000...</tspan></text><rect width="22.49" height="6.615" x="144.2" y="156.1" fill="#f4d7d7" stroke="#000" stroke-dasharray=".53 .265" stroke-width=".265"/><text x="155.632" y="160.734" fill="#000" stroke-width=".265" font-family="sans-serif" font-size="10.583" letter-spacing="0" word-spacing="0" xml:space="preserve" style="line-height:1.25"><tspan x="155.632" y="160.734" stroke-width=".265" font-family="sans-serif" font-size="3.528" text-align="center" text-anchor="middle" style="font-feature-settings:normal;font-variant-caps:normal;font-variant-ligatures:normal;font-variant-numeric:normal">00000...</tspan></text><text x="2.434" y="161.216" fill="#000" stroke-width=".265" font-family="sans-serif" font-size="3.528" letter-spacing="0" word-spacing="0" xml:space="preserve" style="font-feature-settings:normal;font-variant-caps:normal;font-variant-ligatures:normal;font-variant-numeric:normal;line-height:1.25"><tspan x="2.434" y="161.216" stroke-width=".265">zeroes_dev</tspan></text><g fill="none"><rect width="22.49" height="6.615" x="31.75" y="141.55" stroke="#000" stroke-dasharray=".529 .529" stroke-width=".265"/><rect width="22.49" height="6.615" x="54.24" y="141.55" stroke="#000" stroke-dasharray=".529 .529" stroke-width=".265"/><rect width="145.52" height="11.906" x="23.813" y="124.35" stroke="gray" stroke-width=".265" ry="1.323"/><rect width="145.52" height="11.906" x="23.813" y="138.91" stroke="gray" stroke-width=".265" ry="1.323"/></g><path fill="#00f" stroke="#00f" stroke-width=".265" marker-end="url(#e)" d="m115.09 111.12v15.875"/><path fill="red" stroke="#ff2a2a" stroke-width=".265" marker-end="url(#h)" d="m105.83 141.55v-7.9375"/><g stroke="#000" stroke-width=".265"><rect width="22.49" height="6.615" x="54.24" y="127" fill="#ffe3be" stroke-dasharray=".529 .529"/><rect width="22.49" height="6.615" x="144.2" y="127" fill="none" stroke-dasharray=".529 .529"/><rect width="22.49" height="6.615" x="54.24" y="104.51" fill="#fff6d5"/></g><g><path fill="#00f" stroke="#00f" stroke-width=".265" marker-end="url(#d)" d="m70.115 111.12v15.875"/><path fill="red" stroke="#ff2a2a" stroke-width=".265" marker-end="url(#g)" d="m60.854 156.1v-22.49"/><rect width="22.49" height="6.615" x="76.729" y="104.51" fill="#fff6d5" stroke="#000" stroke-width=".265"/></g><g stroke-width=".265"><path fill="#00f" stroke="#00f" marker-end="url(#b)" d="m87.313 111.12v15.875"/><path fill="#00f" stroke="#00f" marker-end="url(#c)" d="m109.8 170.66 10.583 1e-5"/><path fill="red" stroke="#ff2a2a" marker-end="url(#f)" d="m109.8 175.95h10.583"/></g><g stroke-width=".265"><text x="123.031" y="171.979" fill="#000" font-family="sans-serif" font-size="3.528" letter-spacing="0" word-spacing="0" xml:space="preserve" style="font-feature-settings:normal;font-variant-caps:normal;font-variant-ligatures:normal;font-variant-numeric:normal;line-height:1.25"><tspan x="123.031" y="171.979" stroke-width=".265" font-family="sans-serif" font-size="2.822" style="font-feature-settings:normal;font-variant-caps:normal;font-variant-ligatures:normal;font-variant-numeric:normal">write</tspan></text><text x="123.031" y="177.271" fill="#000" font-family="sans-serif" font-size="3.528" letter-spacing="0" word-spacing="0" xml:space="preserve" style="font-feature-settings:normal;font-variant-caps:normal;font-variant-ligatures:normal;font-variant-numeric:normal;line-height:1.25"><tspan x="123.031" y="177.271" stroke-width=".265" font-family="sans-serif" font-size="2.822" style="font-feature-settings:normal;font-variant-caps:normal;font-variant-ligatures:normal;font-variant-numeric:normal">allocate and copy cluster</tspan></text><rect width="10.583" height="2.646" x="109.8" y="179.92" fill="none" stroke="#000" stroke-dasharray=".529 .529"/><text x="123.031" y="182.563" fill="#000" font-family="sans-serif" font-size="3.528" letter-spacing="0" word-spacing="0" xml:space="preserve" style="font-feature-settings:normal;font-variant-caps:normal;font-variant-ligatures:normal;font-variant-numeric:normal;line-height:1.25"><tspan x="123.031" y="182.563" stroke-width=".265" font-family="sans-serif" font-size="2.822" style="font-feature-settings:normal;font-variant-caps:normal;font-variant-ligatures:normal;font-variant-numeric:normal">unallocated cluster before write</tspan></text></g><rect width="10.583" height="2.646" x="109.8" y="185.21" fill="none" stroke="#000" stroke-width=".265"/><text x="123.031" y="187.854" fill="#000" stroke-width=".265" font-family="sans-serif" font-size="3.528" letter-spacing="0" word-spacing="0" xml:space="preserve" style="font-feature-settings:normal;font-variant-caps:normal;font-variant-ligatures:normal;font-variant-numeric:normal;line-height:1.25"><tspan x="123.031" y="187.854" stroke-width=".265" font-family="sans-serif" font-size="2.822" style="font-feature-settings:normal;font-variant-caps:normal;font-variant-ligatures:normal;font-variant-numeric:normal">allocated cluster</tspan></text><g stroke="#000"><rect width="22.49" height="6.615" x="76.729" y="127" fill="#fff6d5" stroke-width=".265"/><path fill="none" stroke-width=".265" marker-end="url(#a)" d="m6.6146 157.43v-9.2604"/><path fill="none" stroke-width=".265" marker-end="url(#Arrow1Mend)" d="m6.6146 142.88v-9.2604"/></g></g></svg>