<svg xmlns="http://www.w3.org/2000/svg" width="685.002" height="300" version="1.1" viewBox="0 0 181.24 79.375"><title>Thin Provisioning</title><defs><marker id="marker2036" orient="auto" overflow="visible"><path fill-rule="evenodd" stroke="#000" stroke-width="1pt" d="m0 0 5-5-17.5 5 17.5 5z" transform="matrix(-.4 0 0 -.4 -4 0)"/></marker><marker id="marker1960" orient="auto" overflow="visible"><path fill-rule="evenodd" stroke="#000" stroke-width="1pt" d="m0 0 5-5-17.5 5 17.5 5z" transform="matrix(-.4 0 0 -.4 -4 0)"/></marker><marker id="marker1890" orient="auto" overflow="visible"><path fill-rule="evenodd" stroke="#000" stroke-width="1pt" d="m0 0 5-5-17.5 5 17.5 5z" transform="matrix(-.4 0 0 -.4 -4 0)"/></marker><marker id="marker1826" orient="auto" overflow="visible"><path fill-rule="evenodd" stroke="#000" stroke-width="1pt" d="m0 0 5-5-17.5 5 17.5 5z" transform="matrix(-.4 0 0 -.4 -4 0)"/></marker><marker id="marker1816" orient="auto" overflow="visible"><path fill-rule="evenodd" stroke="#000" stroke-width="1pt" d="m0 0 5-5-17.5 5 17.5 5z" transform="matrix(-.4 0 0 -.4 -4 0)"/></marker><marker id="Arrow1Mend" orient="auto" overflow="visible"><path fill-rule="evenodd" stroke="#000" stroke-width="1pt" d="m0 0 5-5-17.5 5 17.5 5z" transform="matrix(-.4 0 0 -.4 -4 0)"/></marker><marker id="marker11771-4-9" orient="auto" overflow="visible"><path fill="red" fill-rule="evenodd" stroke="#ff2a2a" stroke-width="1pt" d="m0 0 5-5-17.5 5 17.5 5z" transform="matrix(-.4 0 0 -.4 -4 0)"/></marker><marker id="marker1826-2-4-7-1-7" orient="auto" overflow="visible"><path fill="#00f" fill-rule="evenodd" stroke="#00f" stroke-width="1pt" d="m0 0 5-5-17.5 5 17.5 5z" transform="matrix(-.4 0 0 -.4 -4 0)"/></marker></defs><metadata/><g transform="translate(2.6458 2.3956)"><rect width="181.24" height="79.375" x="-2.646" y="-2.396" fill="#fffffe" stroke-width=".265"/></g><g transform="translate(-3.9688 -4.6356)"><g stroke="#000"><g stroke-width=".265"><rect width="22.49" height="6.615" x="44.979" y="32.417" fill="none" stroke-dasharray=".529 .529"/><rect width="22.49" height="6.615" x="67.469" y="32.417" fill="#d7d7f4"/><rect width="22.49" height="6.615" x="89.958" y="32.417" fill="#d7d7f4"/><rect width="22.49" height="6.615" x="112.45" y="32.417" fill="none" stroke-dasharray=".529 .529"/><rect width="22.49" height="6.615" x="134.94" y="32.417" fill="none" stroke-dasharray=".529 .529"/><rect width="22.49" height="6.615" x="157.43" y="32.417" fill="#d7d7f4"/></g><rect width="22.49" height="6.615" x="44.979" y="46.969" fill="#f4d7d7" stroke-dasharray=".53 .265" stroke-width=".265"/></g><text x="56.413" y="51.599" fill="#000" stroke-width=".265" font-family="sans-serif" font-size="10.583" letter-spacing="0" word-spacing="0" xml:space="preserve" style="line-height:1.25"><tspan x="56.413" y="51.599" stroke-width=".265" font-family="sans-serif" font-size="3.528" text-align="center" text-anchor="middle" style="font-feature-settings:normal;font-variant-caps:normal;font-variant-ligatures:normal;font-variant-numeric:normal">00000...</tspan></text><rect width="22.49" height="6.615" x="67.469" y="46.969" fill="#f4d7d7" stroke="#000" stroke-dasharray=".53 .265" stroke-width=".265"/><text x="78.903" y="51.599" fill="#000" stroke-width=".265" font-family="sans-serif" font-size="10.583" letter-spacing="0" word-spacing="0" xml:space="preserve" style="line-height:1.25"><tspan x="78.903" y="51.599" stroke-width=".265" font-family="sans-serif" font-size="3.528" text-align="center" text-anchor="middle" style="font-feature-settings:normal;font-variant-caps:normal;font-variant-ligatures:normal;font-variant-numeric:normal">00000...</tspan></text><rect width="22.49" height="6.615" x="89.958" y="46.969" fill="#f4d7d7" stroke="#000" stroke-dasharray=".53 .265" stroke-width=".265"/><text x="101.392" y="51.599" fill="#000" stroke-width=".265" font-family="sans-serif" font-size="10.583" letter-spacing="0" word-spacing="0" xml:space="preserve" style="line-height:1.25"><tspan x="101.392" y="51.599" stroke-width=".265" font-family="sans-serif" font-size="3.528" text-align="center" text-anchor="middle" style="font-feature-settings:normal;font-variant-caps:normal;font-variant-ligatures:normal;font-variant-numeric:normal">00000...</tspan></text><rect width="22.49" height="6.615" x="112.45" y="46.969" fill="#f4d7d7" stroke="#000" stroke-dasharray=".53 .265" stroke-width=".265"/><text x="123.882" y="51.599" fill="#000" stroke-width=".265" font-family="sans-serif" font-size="10.583" letter-spacing="0" word-spacing="0" xml:space="preserve" style="line-height:1.25"><tspan x="123.882" y="51.599" stroke-width=".265" font-family="sans-serif" font-size="3.528" text-align="center" text-anchor="middle" style="font-feature-settings:normal;font-variant-caps:normal;font-variant-ligatures:normal;font-variant-numeric:normal">00000...</tspan></text><rect width="22.49" height="6.615" x="134.94" y="46.969" fill="#f4d7d7" stroke="#000" stroke-dasharray=".53 .265" stroke-width=".265"/><text x="146.371" y="51.599" fill="#000" stroke-width=".265" font-family="sans-serif" font-size="10.583" letter-spacing="0" word-spacing="0" xml:space="preserve" style="line-height:1.25"><tspan x="146.371" y="51.599" stroke-width=".265" font-family="sans-serif" font-size="3.528" text-align="center" text-anchor="middle" style="font-feature-settings:normal;font-variant-caps:normal;font-variant-ligatures:normal;font-variant-numeric:normal">00000...</tspan></text><rect width="22.49" height="6.615" x="157.43" y="46.969" fill="#f4d7d7" stroke="#000" stroke-dasharray=".53 .265" stroke-width=".265"/><g stroke-width=".265" font-family="sans-serif" letter-spacing="0" word-spacing="0"><text x="168.861" y="51.599" font-size="10.583" xml:space="preserve" style="line-height:1.25"><tspan x="168.861" y="51.599" stroke-width=".265" font-family="sans-serif" font-size="3.528" text-align="center" text-anchor="middle" style="font-feature-settings:normal;font-variant-caps:normal;font-variant-ligatures:normal;font-variant-numeric:normal">00000...</tspan></text><text x="6.643" y="51.68" font-size="3.528" xml:space="preserve" style="font-feature-settings:normal;font-variant-caps:normal;font-variant-ligatures:normal;font-variant-numeric:normal;line-height:1.25"><tspan x="6.643" y="51.68" stroke-width=".265">zeroes_dev</tspan></text><text x="6.63" y="12.54" font-size="3.528" xml:space="preserve" style="font-feature-settings:normal;font-variant-caps:normal;font-variant-ligatures:normal;font-variant-numeric:normal;line-height:1.25"><tspan x="6.63" y="12.54">Thin-provisioned</tspan><tspan x="6.63" y="16.95">volume</tspan></text></g><g stroke="#000"><path fill="none" stroke-dasharray="1.59 1.59" stroke-width=".265" d="m6.6146 24.479 173.3 1e-6"/><g fill="#f4d7d7" stroke-dasharray=".529 .265" stroke-width=".265"><rect width="22.49" height="6.615" x="44.979" y="9.927"/><rect width="22.49" height="6.615" x="112.45" y="9.927"/><rect width="22.49" height="6.615" x="134.94" y="9.927"/></g><g fill="#d7d7f4" stroke-width=".265"><rect width="22.49" height="6.615" x="67.469" y="9.927"/><rect width="22.49" height="6.615" x="89.958" y="9.927"/><rect width="22.49" height="6.615" x="157.43" y="9.927"/></g></g><text x="6.615" y="37.708" fill="#000" stroke-width=".265" font-family="sans-serif" font-size="3.528" letter-spacing="0" word-spacing="0" xml:space="preserve" style="font-feature-settings:normal;font-variant-caps:normal;font-variant-ligatures:normal;font-variant-numeric:normal;line-height:1.25"><tspan x="6.615" y="37.708" stroke-width=".265">active clusters</tspan></text><rect width="145.52" height="11.906" x="37.042" y="7.281" fill="none" stroke="#999" stroke-width=".5" ry="1.323"/><rect width="145.52" height="26.458" x="37.042" y="29.771" fill="none" stroke="#999" stroke-width=".5" ry="1.323"/><g fill="#00f" stroke="#00f"><g stroke-width=".265"><path marker-end="url(#marker1960)" d="m78.052 16.542v15.875"/><path marker-end="url(#marker2036)" d="m55.562 16.542v30.427"/><path marker-end="url(#marker1890)" d="m100.54 16.542v15.875"/><path marker-end="url(#Arrow1Mend)" d="m169.33 16.542v15.875"/><path marker-end="url(#marker1826)" d="m124.35 16.542v30.427"/><path marker-end="url(#marker1816)" d="m146.84 16.542v30.427"/></g><path stroke-width=".265" marker-end="url(#marker1826-2-4-7-1-7)" d="m132.29 61.521 10.583 1e-5"/></g><path fill="red" stroke="#ff2a2a" stroke-width=".265" marker-end="url(#marker11771-4-9)" d="m132.29 66.813h10.583"/><g stroke-width=".265"><text x="145.521" y="62.844" fill="#000" font-family="sans-serif" font-size="3.528" letter-spacing="0" word-spacing="0" xml:space="preserve" style="font-feature-settings:normal;font-variant-caps:normal;font-variant-ligatures:normal;font-variant-numeric:normal;line-height:1.25"><tspan x="145.521" y="62.844" stroke-width=".265" font-family="sans-serif" font-size="2.822" style="font-feature-settings:normal;font-variant-caps:normal;font-variant-ligatures:normal;font-variant-numeric:normal">read</tspan></text><text x="145.521" y="68.136" fill="#000" font-family="sans-serif" font-size="3.528" letter-spacing="0" word-spacing="0" xml:space="preserve" style="font-feature-settings:normal;font-variant-caps:normal;font-variant-ligatures:normal;font-variant-numeric:normal;line-height:1.25"><tspan x="145.521" y="68.136" stroke-width=".265" font-family="sans-serif" font-size="2.822" style="font-feature-settings:normal;font-variant-caps:normal;font-variant-ligatures:normal;font-variant-numeric:normal">allocate and copy cluster</tspan></text><rect width="10.583" height="2.646" x="132.29" y="70.781" fill="none" stroke="#000" stroke-dasharray=".529 .529"/><text x="145.521" y="73.427" fill="#000" font-family="sans-serif" font-size="3.528" letter-spacing="0" word-spacing="0" xml:space="preserve" style="font-feature-settings:normal;font-variant-caps:normal;font-variant-ligatures:normal;font-variant-numeric:normal;line-height:1.25"><tspan x="145.521" y="73.427" stroke-width=".265" font-family="sans-serif" font-size="2.822" style="font-feature-settings:normal;font-variant-caps:normal;font-variant-ligatures:normal;font-variant-numeric:normal">unallocated cluster</tspan></text></g><rect width="10.583" height="2.646" x="132.29" y="76.073" fill="none" stroke="#000" stroke-width=".265"/><text x="145.521" y="78.719" fill="#000" stroke-width=".265" font-family="sans-serif" font-size="3.528" letter-spacing="0" word-spacing="0" xml:space="preserve" style="font-feature-settings:normal;font-variant-caps:normal;font-variant-ligatures:normal;font-variant-numeric:normal;line-height:1.25"><tspan x="145.521" y="78.719" stroke-width=".265" font-family="sans-serif" font-size="2.822" style="font-feature-settings:normal;font-variant-caps:normal;font-variant-ligatures:normal;font-variant-numeric:normal">allocated cluster</tspan></text></g></svg>