<svg xmlns="http://www.w3.org/2000/svg" width="639.987" height="339.999" version="1.1" viewBox="0 0 169.33 89.958"><defs><marker id="h" orient="auto" overflow="visible"><path fill-rule="evenodd" stroke="#000" stroke-width="1pt" d="m0 0 5-5-17.5 5 17.5 5z" transform="matrix(-.4 0 0 -.4 -4 0)"/></marker><marker id="i" orient="auto" overflow="visible"><path fill-rule="evenodd" stroke="#000" stroke-width="1pt" d="m0 0 5-5-17.5 5 17.5 5z" transform="matrix(-.4 0 0 -.4 -4 0)"/></marker><marker id="Arrow1Mend" orient="auto" overflow="visible"><path fill-rule="evenodd" stroke="#000" stroke-width="1pt" d="m0 0 5-5-17.5 5 17.5 5z" transform="matrix(-.4 0 0 -.4 -4 0)"/></marker><marker id="e" orient="auto" overflow="visible"><path fill="#00f" fill-rule="evenodd" stroke="#00f" stroke-width="1pt" d="m0 0 5-5-17.5 5 17.5 5z" transform="matrix(.4 0 0 .4 4 0)"/></marker><marker id="g" orient="auto" overflow="visible"><path fill="#00f" fill-rule="evenodd" stroke="#00f" stroke-width="1pt" d="m0 0 5-5-17.5 5 17.5 5z" transform="matrix(.4 0 0 .4 4 0)"/></marker><marker id="Arrow1Mstart" orient="auto" overflow="visible"><path fill="#00f" fill-rule="evenodd" stroke="#00f" stroke-width="1pt" d="m0 0 5-5-17.5 5 17.5 5z" transform="matrix(.4 0 0 .4 4 0)"/></marker><marker id="j" orient="auto" overflow="visible"><path fill="#00f" fill-rule="evenodd" stroke="#00f" stroke-width="1pt" d="m0 0 5-5-17.5 5 17.5 5z" transform="matrix(.4 0 0 .4 4 0)"/></marker><marker id="f" orient="auto" overflow="visible"><path fill="#00f" fill-rule="evenodd" stroke="#00f" stroke-width="1pt" d="m0 0 5-5-17.5 5 17.5 5z" transform="matrix(.4 0 0 .4 4 0)"/></marker><marker id="a" orient="auto" overflow="visible"><path fill="#00f" fill-rule="evenodd" stroke="#00f" stroke-width="1pt" d="m0 0 5-5-17.5 5 17.5 5z" transform="matrix(.4 0 0 .4 4 0)"/></marker><marker id="d" orient="auto" overflow="visible"><path fill="#00f" fill-rule="evenodd" stroke="#00f" stroke-width="1pt" d="m0 0 5-5-17.5 5 17.5 5z" transform="matrix(.4 0 0 .4 4 0)"/></marker><marker id="b" orient="auto" overflow="visible"><path fill="#00f" fill-rule="evenodd" stroke="#00f" stroke-width="1pt" d="m0 0 5-5-17.5 5 17.5 5z" transform="matrix(.4 0 0 .4 4 0)"/></marker><marker id="c" orient="auto" overflow="visible"><path fill="#00f" fill-rule="evenodd" stroke="#00f" stroke-width="1pt" d="m0 0 5-5-17.5 5 17.5 5z" transform="matrix(.4 0 0 .4 4 0)"/></marker></defs><metadata/><g transform="translate(3.9687 2.5133)"><rect width="169.33" height="89.958" x="-3.969" y="-2.513" fill="#fff"/></g><g transform="translate(-37.042 -17.865)"><g stroke="#000" stroke-width=".265"><rect width="22.49" height="6.615" x="66.146" y="-56.229" fill="none" stroke-dasharray=".529 .529" transform="scale(1,-1)"/><rect width="22.49" height="6.615" x="88.635" y="-56.229" fill="#d7d7f4" transform="scale(1,-1)"/><rect width="22.49" height="6.615" x="111.13" y="-56.229" fill="#d7d7f4" transform="scale(1,-1)"/><rect width="22.49" height="6.615" x="133.61" y="-56.229" fill="none" stroke-dasharray=".529 .529" transform="scale(1,-1)"/><rect width="22.49" height="6.615" x="156.1" y="-56.229" fill="none" stroke-dasharray=".529 .529" transform="scale(1,-1)"/><rect width="22.49" height="6.615" x="178.59" y="-56.229" fill="#d7d7f4" transform="scale(1,-1)"/></g><g fill="#d7f4d7" stroke="#000" stroke-width=".265"><rect width="22.49" height="6.615" x="111.13" y="-41.677" transform="scale(1,-1)"/><rect width="22.49" height="6.615" x="133.61" y="-41.677" transform="scale(1,-1)"/><rect width="22.49" height="6.615" x="156.1" y="-41.677" transform="scale(1,-1)"/><rect width="22.49" height="6.615" x="178.59" y="-41.677" transform="scale(1,-1)"/></g><text x="39.85" y="38.378" fill="#000" stroke-width=".265" font-family="sans-serif" font-size="3.528" letter-spacing="0" word-spacing="0" xml:space="preserve" style="font-feature-settings:normal;font-variant-caps:normal;font-variant-ligatures:normal;font-variant-numeric:normal;line-height:1.25"><tspan x="39.85" y="38.378" stroke-width=".265">snapshot</tspan></text><text x="39.348" y="97.549" fill="#000" stroke-width=".265" font-family="sans-serif" font-size="3.528" letter-spacing="0" word-spacing="0" xml:space="preserve" style="font-feature-settings:normal;font-variant-caps:normal;font-variant-ligatures:normal;font-variant-numeric:normal;line-height:1.25"><tspan x="39.348" y="97.549">Inflated</tspan><tspan x="39.348" y="101.959">clone</tspan></text><g stroke="#000"><path fill="none" stroke-dasharray="1.59 1.59" stroke-width=".265" d="m39.688 64.167 161.4 9e-6"/><g stroke-width=".265"><rect width="22.49" height="6.615" x="66.146" y="-102.53" fill="#f4d7d7" transform="scale(1,-1)"/><rect width="22.49" height="6.615" x="133.61" y="-102.53" fill="#d7f4d7" transform="scale(1,-1)"/><rect width="22.49" height="6.615" x="156.1" y="-102.53" fill="#d7f4d7" transform="scale(1,-1)"/></g></g><g fill="#d7d7f4" stroke="#000" stroke-width=".265"><rect width="22.49" height="6.615" x="88.635" y="-102.53" transform="scale(1,-1)"/><rect width="22.49" height="6.615" x="111.13" y="-102.53" transform="scale(1,-1)"/><rect width="22.49" height="6.615" x="178.59" y="-102.53" transform="scale(1,-1)"/></g><text x="39.822" y="53.033" fill="#000" stroke-width=".265" font-family="sans-serif" font-size="3.528" letter-spacing="0" word-spacing="0" xml:space="preserve" style="font-feature-settings:normal;font-variant-caps:normal;font-variant-ligatures:normal;font-variant-numeric:normal;line-height:1.25"><tspan x="39.822" y="53.033" stroke-width=".265">clone</tspan></text><rect width="22.49" height="6.615" x="66.146" y="-27.125" fill="#f4d7d7" stroke="#000" stroke-dasharray=".53 .265" stroke-width=".265" transform="scale(1,-1)"/><text x="77.58" y="25.063" fill="#000" stroke-width=".265" font-family="sans-serif" font-size="10.583" letter-spacing="0" word-spacing="0" xml:space="preserve" style="line-height:1.25"><tspan x="77.58" y="25.063" stroke-width=".265" font-family="sans-serif" font-size="3.528" text-align="center" text-anchor="middle" style="font-feature-settings:normal;font-variant-caps:normal;font-variant-ligatures:normal;font-variant-numeric:normal">00000...</tspan></text><rect width="22.49" height="6.615" x="88.635" y="-27.125" fill="#f4d7d7" stroke="#000" stroke-dasharray=".53 .265" stroke-width=".265" transform="scale(1,-1)"/><text x="100.069" y="25.063" fill="#000" stroke-width=".265" font-family="sans-serif" font-size="10.583" letter-spacing="0" word-spacing="0" xml:space="preserve" style="line-height:1.25"><tspan x="100.069" y="25.063" stroke-width=".265" font-family="sans-serif" font-size="3.528" text-align="center" text-anchor="middle" style="font-feature-settings:normal;font-variant-caps:normal;font-variant-ligatures:normal;font-variant-numeric:normal">00000...</tspan></text><rect width="22.49" height="6.615" x="111.13" y="-27.125" fill="#f4d7d7" stroke="#000" stroke-dasharray=".53 .265" stroke-width=".265" transform="scale(1,-1)"/><text x="122.559" y="25.063" fill="#000" stroke-width=".265" font-family="sans-serif" font-size="10.583" letter-spacing="0" word-spacing="0" xml:space="preserve" style="line-height:1.25"><tspan x="122.559" y="25.063" stroke-width=".265" font-family="sans-serif" font-size="3.528" text-align="center" text-anchor="middle" style="font-feature-settings:normal;font-variant-caps:normal;font-variant-ligatures:normal;font-variant-numeric:normal">00000...</tspan></text><rect width="22.49" height="6.615" x="133.61" y="-27.125" fill="#f4d7d7" stroke="#000" stroke-dasharray=".53 .265" stroke-width=".265" transform="scale(1,-1)"/><text x="145.048" y="25.063" fill="#000" stroke-width=".265" font-family="sans-serif" font-size="10.583" letter-spacing="0" word-spacing="0" xml:space="preserve" style="line-height:1.25"><tspan x="145.048" y="25.063" stroke-width=".265" font-family="sans-serif" font-size="3.528" text-align="center" text-anchor="middle" style="font-feature-settings:normal;font-variant-caps:normal;font-variant-ligatures:normal;font-variant-numeric:normal">00000...</tspan></text><rect width="22.49" height="6.615" x="156.1" y="-27.125" fill="#f4d7d7" stroke="#000" stroke-dasharray=".53 .265" stroke-width=".265" transform="scale(1,-1)"/><text x="167.538" y="25.063" fill="#000" stroke-width=".265" font-family="sans-serif" font-size="10.583" letter-spacing="0" word-spacing="0" xml:space="preserve" style="line-height:1.25"><tspan x="167.538" y="25.063" stroke-width=".265" font-family="sans-serif" font-size="3.528" text-align="center" text-anchor="middle" style="font-feature-settings:normal;font-variant-caps:normal;font-variant-ligatures:normal;font-variant-numeric:normal">00000...</tspan></text><rect width="22.49" height="6.615" x="178.59" y="-27.125" fill="#f4d7d7" stroke="#000" stroke-dasharray=".53 .265" stroke-width=".265" transform="scale(1,-1)"/><text x="190.028" y="25.063" fill="#000" stroke-width=".265" font-family="sans-serif" font-size="10.583" letter-spacing="0" word-spacing="0" xml:space="preserve" style="line-height:1.25"><tspan x="190.028" y="25.063" stroke-width=".265" font-family="sans-serif" font-size="3.528" text-align="center" text-anchor="middle" style="font-feature-settings:normal;font-variant-caps:normal;font-variant-ligatures:normal;font-variant-numeric:normal">00000...</tspan></text><text x="39.85" y="23.727" fill="#000" stroke-width=".265" font-family="sans-serif" font-size="3.528" letter-spacing="0" word-spacing="0" xml:space="preserve" style="font-feature-settings:normal;font-variant-caps:normal;font-variant-ligatures:normal;font-variant-numeric:normal;line-height:1.25"><tspan x="39.85" y="23.727" stroke-width=".265">zeroes_dev</tspan></text><g fill="none" stroke="#000"><rect width="22.49" height="6.615" x="66.146" y="-41.677" stroke-dasharray=".529 .529" stroke-width=".265" transform="scale(1,-1)"/><rect width="22.49" height="6.615" x="88.635" y="-41.677" stroke-dasharray=".529 .529" stroke-width=".265" transform="scale(1,-1)"/><rect width="134.94" height="7.938" x="66.146" y="72.104" stroke-width=".5" ry="2.646"/></g><text x="113.745" y="77.262" fill="#000" stroke-width=".265" font-family="sans-serif" font-size="3.528" letter-spacing="0" word-spacing="0" xml:space="preserve" style="font-feature-settings:normal;font-variant-caps:normal;font-variant-ligatures:normal;font-variant-numeric:normal;line-height:1.25"><tspan x="113.745" y="77.262" stroke-width=".265">Allocate and copy</tspan></text><g fill="none" stroke-width=".265"><path stroke="#000" stroke-dasharray="1.59 1.59" d="m39.688 87.979 161.4 4e-6"/><g stroke="gray"><rect width="145.52" height="11.906" x="58.208" y="32.417" ry="1.323"/><rect width="145.52" height="11.906" x="58.208" y="46.969" ry="1.323"/><rect width="145.52" height="11.906" x="58.208" y="93.271" ry="1.323"/></g></g><g fill="#00f" stroke="#00f" stroke-width=".265"><path marker-start="url(#e)" d="m76.729 72.104v-44.979"/><path marker-start="url(#g)" d="m145.52 72.104v-30.427"/><path marker-start="url(#Arrow1Mstart)" d="m168.01 72.104v-30.427"/><path marker-start="url(#a)" d="m76.729 95.917 1.4e-5 -15.875"/><path marker-start="url(#f)" d="m145.52 95.917v-15.875"/><path marker-start="url(#j)" d="m168.01 95.917 1e-5 -15.875"/></g><path fill="none" stroke="#000" stroke-width=".5" marker-end="url(#Arrow1Mend)" d="m58.208 53.583c-7.4527 13.662-6.6489 28.799 0 44.979"/><g fill="#00f" stroke="#00f" stroke-width=".265"><path stroke-dasharray="1.59 1.59" marker-start="url(#d)" d="m100.54 95.917v-39.688"/><path stroke-dasharray="1.59 1.59" marker-start="url(#b)" d="m123.03 95.917v-39.688"/><path stroke-dasharray="1.59 1.59" marker-start="url(#c)" d="m190.5 95.917v-39.688"/></g><text x="39.499" y="77.301" fill="#000" stroke-width=".265" font-family="sans-serif" font-size="3.528" letter-spacing="0" word-spacing="0" xml:space="preserve" style="font-feature-settings:normal;font-variant-caps:normal;font-variant-ligatures:normal;font-variant-numeric:normal;line-height:1.25"><tspan x="39.499" y="77.301" stroke-width=".265">Inflate</tspan></text><path fill="none" stroke="#000" stroke-width=".265" marker-end="url(#h)" d="m44.979 24.479v10.583"/><path fill="none" stroke="#000" stroke-width=".265" marker-end="url(#i)" d="m44.979 40.354v7.9375"/></g></svg>