<svg xmlns="http://www.w3.org/2000/svg" width="733.002" height="528.038" version="1.1" viewBox="0 0 193.94 139.71"><title>NVMe CUSE</title><defs><marker id="marker9353" orient="auto" overflow="visible"><path fill-rule="evenodd" stroke="#000" stroke-width="1pt" d="m0 0 5-5-17.5 5 17.5 5z" transform="matrix(-.8 0 0 -.8 -10 0)"/></marker><marker id="marker7156" orient="auto" overflow="visible"><path fill-rule="evenodd" stroke="#000" stroke-width="1pt" d="m0 0 5-5-17.5 5 17.5 5z" transform="matrix(.8 0 0 .8 10 0)"/></marker><marker id="marker4572" orient="auto" overflow="visible"><path fill-rule="evenodd" stroke="#000" stroke-width="1pt" d="m0 0 5-5-17.5 5 17.5 5z" transform="matrix(-.8 0 0 -.8 -10 0)"/></marker><marker id="marker4436" orient="auto" overflow="visible"><path fill-rule="evenodd" stroke="#000" stroke-width="1pt" d="m0 0 5-5-17.5 5 17.5 5z" transform="matrix(-.8 0 0 -.8 -10 0)"/></marker><marker id="marker4324" orient="auto" overflow="visible"><path fill-rule="evenodd" stroke="#000" stroke-width="1pt" d="m0 0 5-5-17.5 5 17.5 5z" transform="matrix(.8 0 0 .8 10 0)"/></marker><marker id="marker2300" orient="auto" overflow="visible"><path fill-rule="evenodd" stroke="#000" stroke-width="1pt" d="m0 0 5-5-17.5 5 17.5 5z" transform="matrix(-.8 0 0 -.8 -10 0)"/></marker><marker id="marker2110" orient="auto" overflow="visible"><path fill-rule="evenodd" stroke="#000" stroke-width="1pt" d="m0 0 5-5-17.5 5 17.5 5z" transform="matrix(-.8 0 0 -.8 -10 0)"/></marker><marker id="marker2028" orient="auto" overflow="visible"><path fill-rule="evenodd" stroke="#000" stroke-width="1pt" d="m0 0 5-5-17.5 5 17.5 5z" transform="matrix(-.8 0 0 -.8 -10 0)"/></marker><marker id="marker1219" orient="auto" overflow="visible"><path fill-rule="evenodd" stroke="#000" stroke-width="1pt" d="m0 0 5-5-17.5 5 17.5 5z" transform="matrix(.8 0 0 .8 10 0)"/></marker><marker id="Arrow1Lstart" orient="auto" overflow="visible"><path fill-rule="evenodd" stroke="#000" stroke-width="1pt" d="m0 0 5-5-17.5 5 17.5 5z" transform="matrix(.8 0 0 .8 10 0)"/></marker><marker id="marker1127" orient="auto" overflow="visible"><path fill-rule="evenodd" stroke="#000" stroke-width="1pt" d="m0 0 5-5-17.5 5 17.5 5z" transform="matrix(-.8 0 0 -.8 -10 0)"/></marker><marker id="Arrow1Lend" orient="auto" overflow="visible"><path fill-rule="evenodd" stroke="#000" stroke-width="1pt" d="m0 0 5-5-17.5 5 17.5 5z" transform="matrix(-.8 0 0 -.8 -10 0)"/></marker></defs><metadata/><g transform="translate(-2.1066 -22.189)"><rect width="72.004" height="20.6" x="11.906" y="134.85" fill="none" stroke="#000" stroke-width=".5" ry="3.78"/><text x="14.363" y="149.022" fill="#000" stroke-width=".265" font-family="sans-serif" font-size="10.583" letter-spacing="0" word-spacing="0" xml:space="preserve" style="line-height:1.25"><tspan x="14.363" y="149.022" stroke-width=".265" font-family="sans-serif" font-size="3.528" style="font-feature-settings:normal;font-variant-caps:normal;font-variant-ligatures:normal;font-variant-numeric:normal">/dev/spdk/nvme0</tspan></text><text x="47.625" y="149.022" fill="#000" stroke-width=".265" font-family="sans-serif" font-size="10.583" letter-spacing="0" word-spacing="0" xml:space="preserve" style="line-height:1.25"><tspan x="47.625" y="149.022" stroke-width=".265" font-family="sans-serif" font-size="3.528" writing-mode="lr" style="font-feature-settings:normal;font-variant-caps:normal;font-variant-ligatures:normal;font-variant-numeric:normal">/dev/spdk/nvme0n1</tspan></text><g stroke="#000"><rect width="71.249" height="88.446" x="12.095" y="35.818" fill="none" stroke-width=".5" ry="4.347"/><rect width="62.366" height="76.351" x="133.43" y="33.929" fill="none" stroke-width=".5" ry="4.725"/><g fill="#fff" stroke-width=".265"><rect width="64.256" height="24.568" x="14.174" y="91.57"/><g fill-opacity=".98"><rect width="26.62" height="11.061" x="46.302" y="100.64"/></g></g><g><path fill="none" stroke-width=".265" marker-end="url(#marker1127)" marker-start="url(#Arrow1Lstart)" d="m63.878 111.98v32.884" transform="translate(-.53932 -.16291)"/><g stroke-width=".265" transform="translate(-.53932 -.16291)"><path fill="none" marker-end="url(#Arrow1Lend)" marker-start="url(#marker1219)" d="m34.585 115.57v28.726"/><rect width="54.996" height="58.586" x="136.26" y="39.031" fill="#fff"/><rect width="34.018" height="11.906" x="153.84" y="52.26" fill="none" ry="5.854"/></g><path fill="none" stroke-dasharray="1.587 1.587" stroke-width=".265" d="m112.45 24.479v137.58" transform="translate(-.53932 -.16291)"/></g><g fill="#fff" stroke-width=".265"><rect width="38.365" height="8.882" x="89.58" y="54.339"/></g></g><g stroke-width=".265" font-family="sans-serif" font-size="4.233" letter-spacing="0" word-spacing="0"><text x="93.549" y="59.8" xml:space="preserve" style="font-feature-settings:normal;font-variant-caps:normal;font-variant-ligatures:normal;font-variant-numeric:normal;line-height:1.25"><tspan x="93.549" y="59.8" stroke-width=".265">io_msg queue</tspan></text><text x="11.906" y="27.314" xml:space="preserve" style="font-feature-settings:normal;font-variant-caps:normal;font-variant-ligatures:normal;font-variant-numeric:normal;line-height:1.25"><tspan x="11.906" y="27.314" stroke-width=".265">CUSE threads</tspan></text><text x="165.365" y="27.503" xml:space="preserve" style="font-feature-settings:normal;font-variant-caps:normal;font-variant-ligatures:normal;font-variant-numeric:normal;line-height:1.25"><tspan x="165.365" y="27.503" stroke-width=".265">SPDK threads</tspan></text></g><g stroke="#000"><rect width="29.482" height="13.04" x="17.009" y="47.914" fill="#fff" stroke-width=".265" ry="6.52"/><rect width="28.915" height="13.04" x="49.921" y="68.161" fill="#fff" stroke-width=".265" ry="6.52"/><g fill="none"><path stroke-width=".265" marker-start="url(#marker7156)" d="m32.506 61.143v30.427"/><path stroke-width=".265" marker-start="url(#marker4324)" d="m63.689 81.176 0.18899 19.277"/><g stroke-width=".265"><path marker-end="url(#marker2028)" d="m46.113 54.339h43.467"/><path marker-end="url(#marker2110)" d="m64.284 67.972c0.02768-6.3997-1.3229-5.2917 25.135-5.2917"/><path marker-end="url(#marker2300)" d="m127.78 56.066h25.135"/></g></g></g><g stroke-width=".265"><g font-family="sans-serif" font-size="4.233" letter-spacing="0" word-spacing="0"><text x="138.906" y="44.89" transform="translate(-.25341)" xml:space="preserve" style="font-feature-settings:normal;font-variant-caps:normal;font-variant-ligatures:normal;font-variant-numeric:normal;line-height:1.25"><tspan x="138.906" y="44.89" stroke-width=".265">NVMe</tspan></text><text x="16.064" y="97.051" transform="translate(-.25341)" xml:space="preserve" style="font-feature-settings:normal;font-variant-caps:normal;font-variant-ligatures:normal;font-variant-numeric:normal;line-height:1.25"><tspan x="16.064" y="97.051" stroke-width=".265">CUSE ctrlr</tspan></text><text x="48.381" y="106.122" transform="translate(-.25341)" xml:space="preserve" style="font-feature-settings:normal;font-variant-caps:normal;font-variant-ligatures:normal;font-variant-numeric:normal;line-height:1.25"><tspan x="48.381" y="106.122" stroke-width=".265">CUSE ns</tspan></text><text x="51.421" y="75.799" transform="translate(-.25341)" xml:space="preserve" style="font-feature-settings:normal;font-variant-caps:normal;font-variant-ligatures:normal;font-variant-numeric:normal;line-height:1.25"><tspan x="51.421" y="75.799" stroke-width=".265">ioctl pthread</tspan></text><text x="18.907" y="55.833" transform="translate(-.25341)" xml:space="preserve" style="font-feature-settings:normal;font-variant-caps:normal;font-variant-ligatures:normal;font-variant-numeric:normal;line-height:1.25"><tspan x="18.907" y="55.833" stroke-width=".265">ioctl pthread</tspan></text></g><path fill="none" stroke="#000" stroke-dasharray=".794 .794" marker-end="url(#marker4572)" d="m160.86 85.17c0.38097 13.154-7.1538 11.542-82.052 10.936"/><path fill="none" stroke="#000" stroke-dasharray=".794 .794" marker-end="url(#marker4436)" d="m179.38 85.17c0.37797 22.25-6.5765 20.83-106.08 20.641"/></g><g stroke-width=".265" font-family="sans-serif" font-size="4.233" letter-spacing="0" word-spacing="0"><text x="13.229" y="139.762" xml:space="preserve" style="font-feature-settings:normal;font-variant-caps:normal;font-variant-ligatures:normal;font-variant-numeric:normal;line-height:1.25"><tspan x="13.229" y="139.762" stroke-width=".265">Kernel</tspan></text><text x="14.552" y="41.488" xml:space="preserve" style="font-feature-settings:normal;font-variant-caps:normal;font-variant-ligatures:normal;font-variant-numeric:normal;line-height:1.25"><tspan x="14.552" y="41.488" stroke-width=".265">CUSE</tspan></text><text x="161.737" y="59.416" xml:space="preserve" style="font-feature-settings:normal;font-variant-caps:normal;font-variant-ligatures:normal;font-variant-numeric:normal;line-height:1.25"><tspan x="161.737" y="59.416" stroke-width=".265">io poller</tspan></text></g><g fill="none" stroke="#000"><path stroke-dasharray="1.587 1.587" stroke-width=".265" d="m111.91 127.5h-109.8"/><rect width="34.018" height="13.229" x="153.3" y="71.941" stroke-width=".265" ry="6.615"/><path stroke-width=".265" marker-end="url(#marker9353)" d="m170.12 64.003v7.9375"/></g><g stroke-width=".265" font-family="sans-serif" font-size="4.233" letter-spacing="0" word-spacing="0"><text x="159.722" y="79.767" xml:space="preserve" style="font-feature-settings:normal;font-variant-caps:normal;font-variant-ligatures:normal;font-variant-numeric:normal;line-height:1.25"><tspan x="159.722" y="79.767" stroke-width=".265">io execute</tspan></text><text x="172.34" y="68.595" xml:space="preserve" style="font-feature-settings:normal;font-variant-caps:normal;font-variant-ligatures:normal;font-variant-numeric:normal;line-height:1.25"><tspan x="172.34" y="68.595" stroke-width=".265" font-family="sans-serif" font-size="2.822" style="font-feature-settings:normal;font-variant-caps:normal;font-variant-ligatures:normal;font-variant-numeric:normal">fn(arg)</tspan></text><text x="53.047" y="52.193" xml:space="preserve" style="font-feature-settings:normal;font-variant-caps:normal;font-variant-ligatures:normal;font-variant-numeric:normal;line-height:1.25"><tspan x="53.047" y="52.193" stroke-width=".265" font-family="sans-serif" font-size="2.822" style="font-feature-settings:normal;font-variant-caps:normal;font-variant-ligatures:normal;font-variant-numeric:normal">nvme_io_msg send()</tspan></text><text x="53.102" y="60.25" xml:space="preserve" style="font-feature-settings:normal;font-variant-caps:normal;font-variant-ligatures:normal;font-variant-numeric:normal;line-height:1.25"><tspan x="53.102" y="60.25" stroke-width=".265" font-family="sans-serif" font-size="2.822" style="font-feature-settings:normal;font-variant-caps:normal;font-variant-ligatures:normal;font-variant-numeric:normal">nvme_io_msg send()</tspan></text><text x="120.798" y="50.706" stroke-width="1" font-size="12" xml:space="preserve" style="font-feature-settings:normal;font-variant-caps:normal;font-variant-ligatures:normal;font-variant-numeric:normal;line-height:1.25"><tspan x="120.798" y="50.706" stroke-width=".265" font-family="sans-serif" font-size="2.822" style="font-feature-settings:normal;font-variant-caps:normal;font-variant-ligatures:normal;font-variant-numeric:normal">spdk_nvme_io_msg process()</tspan></text></g></g></svg>