<svg xmlns="http://www.w3.org/2000/svg" version="1.1" viewBox="0 0 187.85 104.34"><defs><marker id="a" orient="auto" style="overflow:visible"><path d="m8.7186 4.0337-10.926-4.0177 10.926-4.0177c-1.7455 2.3721-1.7354 5.6175-6e-7 8.0354z" transform="matrix(1.1,0,0,1.1,1.1,0)" style="fill-rule:evenodd;fill:#000;stroke-linejoin:round;stroke-width:.625;stroke:#000"/></marker><marker id="b" orient="auto" style="overflow:visible"><path d="m8.7186 4.0337-10.926-4.0177 10.926-4.0177c-1.7455 2.3721-1.7354 5.6175-6e-7 8.0354z" transform="matrix(-1.1,0,0,-1.1,-1.1,0)" style="fill-rule:evenodd;fill:#000;stroke-linejoin:round;stroke-width:.625;stroke:#000"/></marker><marker id="j" orient="auto" style="overflow:visible"><path d="m8.7186 4.0337-10.926-4.0177 10.926-4.0177c-1.7455 2.3721-1.7354 5.6175-6e-7 8.0354z" transform="matrix(1.1,0,0,1.1,1.1,0)" style="fill-rule:evenodd;fill:#000;stroke-linejoin:round;stroke-width:.625;stroke:#000"/></marker><marker id="l" orient="auto" style="overflow:visible"><path d="m8.7186 4.0337-10.926-4.0177 10.926-4.0177c-1.7455 2.3721-1.7354 5.6175-6e-7 8.0354z" transform="matrix(1.1,0,0,1.1,1.1,0)" style="fill-rule:evenodd;fill:#000;stroke-linejoin:round;stroke-width:.625;stroke:#000"/></marker><marker id="c" orient="auto" style="overflow:visible"><path d="m8.7186 4.0337-10.926-4.0177 10.926-4.0177c-1.7455 2.3721-1.7354 5.6175-6e-7 8.0354z" transform="matrix(-1.1,0,0,-1.1,-1.1,0)" style="fill-rule:evenodd;fill:#000;stroke-linejoin:round;stroke-width:.625;stroke:#000"/></marker><marker id="d" orient="auto" style="overflow:visible"><path d="m8.7186 4.0337-10.926-4.0177 10.926-4.0177c-1.7455 2.3721-1.7354 5.6175-6e-7 8.0354z" transform="matrix(-1.1,0,0,-1.1,-1.1,0)" style="fill-rule:evenodd;fill:#000;stroke-linejoin:round;stroke-width:.625;stroke:#000"/></marker><marker id="e" orient="auto" style="overflow:visible"><path d="m8.7186 4.0337-10.926-4.0177 10.926-4.0177c-1.7455 2.3721-1.7354 5.6175-6e-7 8.0354z" transform="matrix(-1.1,0,0,-1.1,-1.1,0)" style="fill-rule:evenodd;fill:#000;stroke-linejoin:round;stroke-width:.625;stroke:#000"/></marker><marker id="f" orient="auto" style="overflow:visible"><path d="m8.7186 4.0337-10.926-4.0177 10.926-4.0177c-1.7455 2.3721-1.7354 5.6175-6e-7 8.0354z" transform="matrix(-1.1,0,0,-1.1,-1.1,0)" style="fill-rule:evenodd;fill:#000;stroke-linejoin:round;stroke-width:.625;stroke:#000"/></marker><marker id="g" orient="auto" style="overflow:visible"><path d="m8.7186 4.0337-10.926-4.0177 10.926-4.0177c-1.7455 2.3721-1.7354 5.6175-6e-7 8.0354z" transform="matrix(-1.1,0,0,-1.1,-1.1,0)" style="fill-rule:evenodd;fill:#000;stroke-linejoin:round;stroke-width:.625;stroke:#000"/></marker><marker id="h" orient="auto" style="overflow:visible"><path d="m8.7186 4.0337-10.926-4.0177 10.926-4.0177c-1.7455 2.3721-1.7354 5.6175-6e-7 8.0354z" transform="matrix(-1.1,0,0,-1.1,-1.1,0)" style="fill-rule:evenodd;fill:#000;stroke-linejoin:round;stroke-width:.625;stroke:#000"/></marker><marker id="i" orient="auto" style="overflow:visible"><path d="m8.7186 4.0337-10.926-4.0177 10.926-4.0177c-1.7455 2.3721-1.7354 5.6175-6e-7 8.0354z" transform="matrix(-1.1,0,0,-1.1,-1.1,0)" style="fill-rule:evenodd;fill:#000;stroke-linejoin:round;stroke-width:.625;stroke:#000"/></marker><marker id="k" orient="auto" style="overflow:visible"><path d="m8.7186 4.0337-10.926-4.0177 10.926-4.0177c-1.7455 2.3721-1.7354 5.6175-6e-7 8.0354z" transform="matrix(-1.1,0,0,-1.1,-1.1,0)" style="fill-rule:evenodd;fill:#000;stroke-linejoin:round;stroke-width:.625;stroke:#000"/></marker></defs><metadata/><g transform="translate(2.5133 -10.794)"><rect width="187.85" height="104.34" x="-2.513" y="10.794" style="fill:#fffffe"/></g><g transform="translate(-2.6458 -133.04)"><rect width="79.375" height="74.083" x="10.583" y="135.6" ry="2.646" style="fill:#d5e5ff;stroke-width:.5;stroke:#000"/><rect width="21.167" height="5.292" x="63.5" y="199.1" style="fill:none;stroke-dasharray:1.05833327,1.05833327;stroke-width:.26458;stroke:#000"/><rect width="58.208" height="30.427" x="21.167" y="152.8" ry="2.646" style="fill:none;stroke-width:.26458;stroke:#000"/><path d="m26.458 191.17v-7.9375" style="fill:none;marker-end:url(#h);stroke-dasharray:1.05999995,1.05999995;stroke-width:.265;stroke:#000"/><path d="m34.396 183.23v7.9375" style="fill:none;marker-end:url(#i);stroke-dasharray:1.05999995,1.05999995;stroke-width:.265;stroke:#000"/><rect width="15.875" height="15.875" x="63.5" y="218.95" ry="2.646" style="fill:#ffd5e5;stroke-width:.5;stroke:#000"/><path d="m71.438 204.4v14.552" style="fill:none;marker-end:url(#g);stroke-dasharray:1.5874999,1.5874999;stroke-width:.26458;stroke:#000"/><rect width="68.792" height="39.687" x="15.875" y="143.54" ry="2.646" style="fill:none;stroke-width:.26458;stroke:#000"/><path d="m63.5 226.89h-58.208l-1e-7-62.177 10.583-1e-5" style="fill:none;marker-end:url(#f);stroke-dasharray:1.58999992,1.58999992;stroke-width:.265;stroke:#000"/><g transform="translate(-.13251 -.1325)"><rect width="97.896" height="52.917" x="90.091" y="135.74" ry="2.646" style="fill:#fff6d5;stroke-width:.5;stroke:#000"/><g><g transform="translate(-10.451 .1325)"><rect width="60.854" height="31.75" x="132.29" y="152.8" ry="2.646" style="fill:none;stroke-width:.265;stroke:#000"/><text x="150.912" y="158.044" xml:space="preserve" style="fill:#000;font-family:sans-serif;font-feature-settings:normal;font-size:3.5278px;font-variant-caps:normal;font-variant-ligatures:normal;font-variant-numeric:normal;letter-spacing:0;line-height:1.25;stroke-width:.26458;text-align:center;text-anchor:middle;word-spacing:0"><tspan x="150.912" y="158.044">Vhost-SCSI device</tspan></text></g><g transform="translate(-10.451 -2.5133)"><rect width="50.271" height="15.875" x="137.58" y="164.71" ry="2.646" style="fill:none;stroke-opacity:.99034;stroke-width:.265;stroke:#000"/><text x="139.997" y="171.414" xml:space="preserve" style="fill:#000;font-family:sans-serif;font-feature-settings:normal;font-size:3.5278px;font-variant-caps:normal;font-variant-ligatures:normal;font-variant-numeric:normal;letter-spacing:0;line-height:1.25;stroke-width:.26458;word-spacing:0"><tspan x="139.997" y="171.414" style="font-family:sans-serif;font-feature-settings:normal;font-size:3.5278px;font-variant-caps:normal;font-variant-ligatures:normal;font-variant-numeric:normal">SPDK bdev(s)</tspan><tspan x="139.997" y="175.824" style="font-family:sans-serif;font-feature-settings:normal;font-size:2.8222px;font-variant-caps:normal;font-variant-ligatures:normal;font-variant-numeric:normal">(NVMe, NVMf, Ceph RBD, PMEM)</tspan></text></g></g></g><text x="92.372" y="140.93" xml:space="preserve" style="fill:#000;font-family:sans-serif;font-feature-settings:normal;font-size:3.5278px;font-variant-caps:normal;font-variant-ligatures:normal;font-variant-numeric:normal;letter-spacing:0;line-height:1.25;stroke-width:.26458;word-spacing:0"><tspan x="92.372" y="140.93" style="font-family:sans-serif;font-feature-settings:normal;font-size:3.5278px;font-variant-caps:normal;font-variant-ligatures:normal;font-variant-numeric:normal;stroke-width:.26458">SPDK vhost</tspan></text><text x="13.482" y="140.441" xml:space="preserve" style="fill:#000;font-family:sans-serif;font-feature-settings:normal;font-size:3.5278px;font-variant-caps:normal;font-variant-ligatures:normal;font-variant-numeric:normal;letter-spacing:0;line-height:1.25;stroke-width:.26458;word-spacing:0"><tspan x="13.482" y="140.441" style="font-family:sans-serif;font-feature-settings:normal;font-size:3.5278px;font-variant-caps:normal;font-variant-ligatures:normal;font-variant-numeric:normal;stroke-width:.26458">QEMU</tspan></text><g transform="translate(2.5609e-6 -5.2917)"><rect width="29.104" height="13.229" x="15.875" y="196.46" style="fill:none;stroke-width:.26458;stroke:#000"/><text x="16.636" y="201.479" xml:space="preserve" style="fill:#000;font-family:sans-serif;font-feature-settings:normal;font-size:3.5278px;font-variant-caps:normal;font-variant-ligatures:normal;font-variant-numeric:normal;letter-spacing:0;line-height:1.25;stroke-width:.26458;word-spacing:0"><tspan x="16.636" y="201.479" style="font-family:sans-serif;font-feature-settings:normal;font-size:2.8222px;font-variant-caps:normal;font-variant-ligatures:normal;font-variant-numeric:normal;stroke-width:.26458">Virtio-SCSI device</tspan></text></g><g transform="translate(-5.0685e-6 -5.2917)"><rect width="39.688" height="13.229" x="44.979" y="196.46" ry="0" style="fill:none;stroke-width:.26458;stroke:#000"/><text x="46.195" y="201.313" xml:space="preserve" style="fill:#000;font-family:sans-serif;font-feature-settings:normal;font-size:3.5278px;font-variant-caps:normal;font-variant-ligatures:normal;font-variant-numeric:normal;letter-spacing:0;line-height:1.25;stroke-width:.26458;word-spacing:0"><tspan x="46.195" y="201.313" style="font-family:sans-serif;font-feature-settings:normal;font-size:2.8222px;font-variant-caps:normal;font-variant-ligatures:normal;font-variant-numeric:normal;stroke-width:.26458">Vhost-user driver (master)</tspan></text></g><g><g transform="translate(0 6.6146)"><rect width="55.562" height="17.198" x="54.24" y="154.12" ry="2.646" style="fill:#e3f4d7;stroke-dasharray:.52999997,.52999997;stroke-width:.265;stroke:#000"/><text x="64.251" y="157.507" xml:space="preserve" style="fill:#000;font-family:sans-serif;font-feature-settings:normal;font-size:3.5278px;font-variant-caps:normal;font-variant-ligatures:normal;font-variant-numeric:normal;letter-spacing:0;line-height:1.25;stroke-width:.26458;word-spacing:0"><tspan x="64.251" y="157.507" style="font-family:sans-serif;font-feature-settings:normal;font-size:2.8222px;font-variant-caps:normal;font-variant-ligatures:normal;font-variant-numeric:normal;stroke-width:.26458">Shared hugepage memory</tspan></text></g><g><g transform="translate(0 6.6146)"><rect width="47.625" height="5.292" x="58.208" y="159.42" ry="0" style="fill:#c3e8aa;stroke-width:.265;stroke:#000"/><text x="76.179" y="162.798" xml:space="preserve" style="fill:#000;font-family:sans-serif;font-feature-settings:normal;font-size:3.5278px;font-variant-caps:normal;font-variant-ligatures:normal;font-variant-numeric:normal;letter-spacing:0;line-height:1.25;stroke-width:.26458;word-spacing:0"><tspan x="76.179" y="162.798" style="font-family:sans-serif;font-feature-settings:normal;font-size:2.8222px;font-variant-caps:normal;font-variant-ligatures:normal;font-variant-numeric:normal;stroke-width:.26458">Virtqueues</tspan></text></g><g transform="translate(0 6.6146)"><rect width="47.625" height="5.292" x="58.208" y="164.71" ry="0" style="fill:#c3e8aa;stroke-width:.265;stroke:#000"/><text x="76.452" y="168.175" xml:space="preserve" style="fill:#000;font-family:sans-serif;font-feature-settings:normal;font-size:3.5278px;font-variant-caps:normal;font-variant-ligatures:normal;font-variant-numeric:normal;letter-spacing:0;line-height:1.25;stroke-width:.26458;word-spacing:0"><tspan x="76.452" y="168.175" style="font-family:sans-serif;font-feature-settings:normal;font-size:2.8222px;font-variant-caps:normal;font-variant-ligatures:normal;font-variant-numeric:normal;stroke-width:.26458">I/O buffers</tspan></text></g></g></g><path d="m127 173.97-21.167 1e-5" style="fill:none;marker-end:url(#c);marker-start:url(#l);stroke-dasharray:1.05833327,1.05833327;stroke-width:.26458;stroke:#000"/><path d="m106.28 168.61 15.433.0673" style="fill:none;marker-end:url(#d);stroke-dasharray:1.05833327,1.05833327;stroke-width:.26458;stroke:#000"/><text x="110.869" y="166.853" xml:space="preserve" style="fill:#000;font-family:sans-serif;font-size:10.583px;letter-spacing:0;line-height:1.25;stroke-width:.26458;word-spacing:0"><tspan x="110.869" y="166.853" style="font-family:sans-serif;font-feature-settings:normal;font-size:2.8222px;font-variant-caps:normal;font-variant-ligatures:normal;font-variant-numeric:normal;stroke-width:.26458">polling</tspan></text><text x="112.171" y="173.116" xml:space="preserve" style="fill:#000;font-family:sans-serif;font-size:10.583px;letter-spacing:0;line-height:1.25;stroke-width:.26458;word-spacing:0"><tspan x="112.171" y="173.116" style="font-family:sans-serif;font-feature-settings:normal;font-size:2.8222px;font-variant-caps:normal;font-variant-ligatures:normal;font-variant-numeric:normal;stroke-width:.26458">DMA</tspan></text><text x="67.98" y="228.134" xml:space="preserve" style="fill:#000;font-family:sans-serif;font-feature-settings:normal;font-size:3.5278px;font-variant-caps:normal;font-variant-ligatures:normal;font-variant-numeric:normal;letter-spacing:0;line-height:1.25;stroke-width:.26458;word-spacing:0"><tspan x="67.98" y="228.134" style="stroke-width:.26458">KVM</tspan></text><text x="69.351" y="202.768" xml:space="preserve" style="fill:#000;font-family:sans-serif;font-feature-settings:normal;font-size:3.5278px;font-variant-caps:normal;font-variant-ligatures:normal;font-variant-numeric:normal;letter-spacing:0;line-height:1.25;stroke-width:.26458;word-spacing:0"><tspan x="69.351" y="202.768" style="font-family:sans-serif;font-feature-settings:normal;font-size:2.8222px;font-variant-caps:normal;font-variant-ligatures:normal;font-variant-numeric:normal;stroke-width:.26458">callfd</tspan></text><text x="106.927" y="200.634" xml:space="preserve" style="fill:#000;font-family:sans-serif;font-feature-settings:normal;font-size:3.5278px;font-variant-caps:normal;font-variant-ligatures:normal;font-variant-numeric:normal;letter-spacing:0;line-height:1.25;stroke-width:.26458;word-spacing:0"><tspan x="106.927" y="200.634" style="font-family:sans-serif;font-feature-settings:normal;font-size:2.8222px;font-variant-caps:normal;font-variant-ligatures:normal;font-variant-numeric:normal;stroke-width:.26458">eventfd interrupt</tspan></text><path d="m166.69 184.55v17.198c-21.167 0-60.854 1e-5-82.021 1e-5" style="fill:none;marker-end:url(#e);stroke-dasharray:1.58999992,1.58999992;stroke-width:.265;stroke:#000"/><text x="72.494" y="214.478" xml:space="preserve" style="fill:#000;font-family:sans-serif;font-feature-settings:normal;font-size:3.5278px;font-variant-caps:normal;font-variant-ligatures:normal;font-variant-numeric:normal;letter-spacing:0;line-height:1.25;stroke-width:.26458;word-spacing:0"><tspan x="72.494" y="214.478" style="font-family:sans-serif;font-feature-settings:normal;font-size:2.8222px;font-variant-caps:normal;font-variant-ligatures:normal;font-variant-numeric:normal;stroke-width:.26458">irqfd</tspan></text><text x="23.785" y="158.128" xml:space="preserve" style="fill:#000;font-family:sans-serif;font-feature-settings:normal;font-size:3.5278px;font-variant-caps:normal;font-variant-ligatures:normal;font-variant-numeric:normal;letter-spacing:0;line-height:1.25;stroke-width:.26458;word-spacing:0"><tspan x="23.785" y="158.128">Virtio-SCSI PCI</tspan><tspan x="23.785" y="162.538">driver</tspan></text><path d="m54.24 171.32h-10.583" style="fill:none;marker-end:url(#k);marker-start:url(#j);stroke-dasharray:.79499996,.79499996;stroke-width:.265;stroke:#000"/><text x="18.493" y="148.833" xml:space="preserve" style="fill:#000;font-family:sans-serif;font-feature-settings:normal;font-size:3.5278px;font-variant-caps:normal;font-variant-ligatures:normal;font-variant-numeric:normal;letter-spacing:0;line-height:1.25;stroke-width:.26458;word-spacing:0"><tspan x="18.493" y="148.833" style="font-family:sans-serif;font-feature-settings:normal;font-size:3.5278px;font-variant-caps:normal;font-variant-ligatures:normal;font-variant-numeric:normal;stroke-width:.26458">VM</tspan></text><rect width="30.427" height="5.292" x="127" y="179.26" style="fill:none;stroke-dasharray:1.05833328,1.05833328;stroke-width:.26458;stroke:#000"/><text x="128.167" y="182.728" xml:space="preserve" style="fill:#000;font-family:sans-serif;font-feature-settings:normal;font-size:3.5278px;font-variant-caps:normal;font-variant-ligatures:normal;font-variant-numeric:normal;letter-spacing:0;line-height:1.25;stroke-width:.26458;word-spacing:0"><tspan x="128.167" y="182.728" style="font-family:sans-serif;font-feature-settings:normal;font-size:2.8222px;font-variant-caps:normal;font-variant-ligatures:normal;font-variant-numeric:normal;stroke-width:.26458">Unix domain socket</tspan></text><text x="104.545" y="194.105" xml:space="preserve" style="fill:#000;font-family:sans-serif;font-feature-settings:normal;font-size:3.5278px;font-variant-caps:normal;font-variant-ligatures:normal;font-variant-numeric:normal;letter-spacing:0;line-height:1.25;stroke-width:.26458;word-spacing:0"><tspan x="104.545" y="194.105" style="font-family:sans-serif;font-feature-settings:normal;font-size:2.8222px;font-variant-caps:normal;font-variant-ligatures:normal;font-variant-numeric:normal;stroke-width:.26458">Vhost-user messages</tspan></text><path d="m142.88 184.55v10.583h-58.208" style="fill:none;marker-end:url(#b);marker-start:url(#a);stroke-dasharray:1.58999992,1.58999992;stroke-width:.265;stroke:#000"/></g></svg>